<svg xmlns="http://www.w3.org/2000/svg" xmlns:xlink="http://www.w3.org/1999/xlink" viewBox="0 0 281.63 83"><defs><style>.cls-1{fill:url(#未命名的渐变_28);}.cls-2{fill:url(#未命名的渐变_30);}.cls-3{fill:url(#未命名的渐变_33);}.cls-4{font-size:32.14px;}.cls-4,.cls-5{font-family:Reeji-CloudYuanXi-GBK-Regular, Reeji-CloudYuanXi-GBK;}.cls-5{font-size:27.49px;}</style><linearGradient id="未命名的渐变_28" x1="14.25" y1="2.28" x2="15.01" y2="64.15" gradientUnits="userSpaceOnUse"><stop offset="0.06" stop-color="#36ea7e"/><stop offset="0.39" stop-color="#2bd183"/><stop offset="0.97" stop-color="#139d8d"/></linearGradient><linearGradient id="未命名的渐变_30" x1="23.77" y1="-3.91" x2="24.08" y2="53.96" gradientUnits="userSpaceOnUse"><stop offset="0.06" stop-color="#f5ab19"/><stop offset="0.27" stop-color="#f49217"/><stop offset="0.72" stop-color="#f25313"/><stop offset="0.97" stop-color="#f12b11"/></linearGradient><linearGradient id="未命名的渐变_33" x1="20.74" y1="36.97" x2="21.03" y2="60.49" gradientUnits="userSpaceOnUse"><stop offset="0.07" stop-color="#8829e2"/><stop offset="0.44" stop-color="#6f19e1"/><stop offset="0.91" stop-color="#4b01e0"/></linearGradient></defs><g id="图层_2" data-name="图层 2"><g id="图层_1-2" data-name="图层 1"><polygon class="cls-1" points="0.07 0 0.03 0 0.03 59.95 0.05 59.95 29.58 35.16 0.07 0"/><path class="cls-2" d="M29.61,35.14,41.92,49.8c3.66-4.85,5.73-11.52,5.73-20.15C47.65,8.78,35.56,0,17.27,0H.09l29.5,35.16Z"/><path class="cls-3" d="M0,60H18c10.29,0,18.72-3.25,23.94-10.16L29.6,35.15Z"/><text class="cls-4" transform="translate(56.65 28.29)">工大开发者社区</text><text class="cls-5" transform="translate(58.91 59.78) scale(0.88 1)">NPU Developer Hub</text></g></g></svg>